<?xml version="1.0" encoding="UTF-8"?>
<svg xmlns="http://www.w3.org/2000/svg" xmlns:xlink="http://www.w3.org/1999/xlink" width="10pt" height="10pt" viewBox="0 0 10 10" version="1.1">
<g id="surface1">
<path style=" stroke:none;fill-rule:nonzero;fill:rgb(26.27451%,38.823529%,44.705882%);fill-opacity:1;" d="M 0.292969 8.222656 L 1.757812 8.222656 L 1.757812 9.101562 C 1.757812 9.261719 1.890625 9.394531 2.050781 9.394531 L 9.707031 9.394531 C 9.867188 9.394531 10 9.261719 10 9.101562 L 10 1.484375 C 10 1.324219 9.867188 1.191406 9.707031 1.191406 L 8.242188 1.191406 L 8.242188 0.898438 C 8.242188 0.738281 8.109375 0.605469 7.949219 0.605469 C 7.789062 0.605469 7.65625 0.738281 7.65625 0.898438 L 7.65625 1.191406 L 6.171875 1.191406 L 6.171875 0.898438 C 6.171875 0.738281 6.039062 0.605469 5.878906 0.605469 C 5.71875 0.605469 5.585938 0.738281 5.585938 0.898438 L 5.585938 1.191406 L 4.121094 1.191406 L 4.121094 0.898438 C 4.121094 0.738281 3.988281 0.605469 3.828125 0.605469 C 3.667969 0.605469 3.535156 0.738281 3.535156 0.898438 L 3.535156 1.191406 L 2.050781 1.191406 C 1.890625 1.191406 1.757812 1.324219 1.757812 1.484375 L 1.757812 3.242188 C 1.757812 5.402344 0.859375 7.0625 0.105469 7.703125 C 0.0117188 7.785156 -0.0234375 7.914062 0.015625 8.03125 C 0.0585938 8.144531 0.167969 8.222656 0.292969 8.222656 Z M 9.414062 8.808594 L 2.34375 8.808594 L 2.34375 8.222656 L 7.949219 8.222656 C 8.019531 8.222656 8.085938 8.199219 8.136719 8.15625 C 8.488281 7.863281 9.035156 7.164062 9.414062 6.269531 Z M 2.34375 1.777344 L 3.535156 1.777344 L 3.535156 2.070312 C 3.535156 2.230469 3.667969 2.363281 3.828125 2.363281 C 3.988281 2.363281 4.121094 2.230469 4.121094 2.070312 L 4.121094 1.777344 L 5.585938 1.777344 L 5.585938 2.070312 C 5.585938 2.230469 5.71875 2.363281 5.878906 2.363281 C 6.039062 2.363281 6.171875 2.230469 6.171875 2.070312 L 6.171875 1.777344 L 7.65625 1.777344 L 7.65625 2.070312 C 7.65625 2.230469 7.789062 2.363281 7.949219 2.363281 C 8.109375 2.363281 8.242188 2.230469 8.242188 2.070312 L 8.242188 1.777344 L 9.414062 1.777344 L 9.414062 2.949219 L 2.34375 2.949219 Z M 2.339844 3.535156 L 9.410156 3.535156 C 9.34375 5.394531 8.628906 6.855469 7.835938 7.636719 L 0.960938 7.636719 C 1.859375 6.488281 2.289062 4.992188 2.339844 3.535156 Z M 2.339844 3.535156 "/>
</g>
</svg>
