<?xml version="1.0" encoding="UTF-8"?>
<svg xmlns="http://www.w3.org/2000/svg" xmlns:xlink="http://www.w3.org/1999/xlink" width="10pt" height="10pt" viewBox="0 0 10 10" version="1.1">
<g id="surface1">
<path d="M 5 0 C 3.546875 0 2.363281 1.183594 2.363281 2.636719 C 2.363281 4.089844 3.546875 5.273438 5 5.273438 C 6.453125 5.273438 7.636719 4.089844 7.636719 2.636719 C 7.636719 1.183594 6.453125 0 5 0 Z M 5 0 "/>
<path d="M 8.28125 6.996094 C 7.558594 6.261719 6.601562 5.859375 5.585938 5.859375 L 4.414062 5.859375 C 3.398438 5.859375 2.441406 6.261719 1.71875 6.996094 C 1 7.726562 0.605469 8.6875 0.605469 9.707031 C 0.605469 9.867188 0.738281 10 0.898438 10 L 9.101562 10 C 9.261719 10 9.394531 9.867188 9.394531 9.707031 C 9.394531 8.6875 9 7.726562 8.28125 6.996094 Z M 8.28125 6.996094 "/>
</g>
</svg>
