<?xml version="1.0" encoding="utf-8"?><svg viewBox="0 0 146 39" xmlns="http://www.w3.org/2000/svg" xmlns:xlink="http://www.w3.org/1999/xlink"><style>:root>svg{display:none}:root>svg:target{display:block}</style><svg viewBox="0 0 22 9" id="arrow-right" xmlns="http://www.w3.org/2000/svg"><defs><style>.acls-1{fill-rule:evenodd}</style></defs><path class="acls-1" d="M.3 5.472h16.948l-.1 2.857a.292.292 0 000 .41l.172.172a.28.28 0 00.2.086.285.285 0 00.2-.084l4.193-4.211A.292.292 0 0022 4.5a.283.283 0 00-.084-.2L17.723.087a.289.289 0 00-.407 0l-.172.173a.287.287 0 00-.084.2.278.278 0 00.084.2l.113 2.865H.292A.3.3 0 000 3.82v1.37a.292.292 0 00.3.282z"/></svg><svg viewBox="0 0 21 21" id="burger" xmlns="http://www.w3.org/2000/svg"><path fill-rule="evenodd" fill="#FFF" d="M17.883 12.75a2.145 2.145 0 01-2.146-2.147c0-1.186.959-2.145 2.146-2.145 1.187 0 2.146.959 2.146 2.145a2.145 2.145 0 01-2.146 2.147zm0-7.869a2.144 2.144 0 01-2.146-2.146c0-1.187.959-2.146 2.146-2.146 1.187 0 2.146.959 2.146 2.146a2.144 2.144 0 01-2.146 2.146zm-7.869 15.737a2.144 2.144 0 01-2.146-2.146c0-1.187.96-2.146 2.146-2.146 1.187 0 2.146.959 2.146 2.146a2.144 2.144 0 01-2.146 2.146zm0-7.868a2.145 2.145 0 110-4.292c1.187 0 2.146.959 2.146 2.145a2.145 2.145 0 01-2.146 2.147zm0-7.869a2.145 2.145 0 110-4.292c1.187 0 2.146.959 2.146 2.146a2.144 2.144 0 01-2.146 2.146zM2.146 20.618A2.144 2.144 0 010 18.472c0-1.187.959-2.146 2.146-2.146 1.187 0 2.146.959 2.146 2.146a2.144 2.144 0 01-2.146 2.146zm0-7.868A2.145 2.145 0 010 10.603c0-1.186.959-2.145 2.146-2.145 1.187 0 2.146.959 2.146 2.145a2.145 2.145 0 01-2.146 2.147zm0-7.869A2.144 2.144 0 010 2.735C0 1.548.959.589 2.146.589c1.187 0 2.146.959 2.146 2.146a2.144 2.144 0 01-2.146 2.146zm15.737 11.445c1.187 0 2.146.959 2.146 2.146a2.144 2.144 0 01-2.146 2.146 2.144 2.144 0 01-2.146-2.146c0-1.187.959-2.146 2.146-2.146z"/></svg><svg viewBox="0 0 10 10" id="calendar" xmlns="http://www.w3.org/2000/svg"><path d="M.293 8.223h1.465v.879c0 .16.133.293.293.293h7.656c.16 0 .293-.133.293-.293V1.484a.295.295 0 00-.293-.293H8.242V.898A.295.295 0 007.95.605a.295.295 0 00-.293.293v.293H6.172V.898a.295.295 0 00-.293-.293.295.295 0 00-.293.293v.293H4.12V.898a.295.295 0 00-.293-.293.295.295 0 00-.293.293v.293H2.051a.295.295 0 00-.293.293v1.758c0 2.16-.899 3.82-1.653 4.461a.307.307 0 00-.09.328.297.297 0 00.278.192zm9.121.586h-7.07v-.586h5.605a.29.29 0 00.188-.067c.351-.293.898-.992 1.277-1.886zm-7.07-7.032h1.191v.293c0 .16.133.293.293.293.16 0 .293-.133.293-.293v-.293h1.465v.293c0 .16.133.293.293.293.16 0 .293-.133.293-.293v-.293h1.484v.293c0 .16.133.293.293.293.16 0 .293-.133.293-.293v-.293h1.172V2.95h-7.07zM2.34 3.535h7.07c-.066 1.86-.781 3.32-1.574 4.102H.96c.898-1.149 1.328-2.645 1.379-4.102zm0 0" fill="#436372"/></svg><svg viewBox="0 0 19 17" id="cart" xmlns="http://www.w3.org/2000/svg"><path fill-rule="evenodd" fill="#243F4D" d="M18.936 3.932l-2.123 7.956a.594.594 0 01-.573.44H5.885a.044.044 0 00-.023 0c-1.329.001-2.205.493-2.68 1.509a.593.593 0 01-1.073-.502c.579-1.239 1.627-1.973 3.054-2.151L4.108 5.793a.592.592 0 111.163-.227l1.091 5.578h9.423l1.807-6.771H4.29A4.354 4.354 0 01.007.68.591.591 0 111.178.505a3.165 3.165 0 003.115 2.682h14.07a.593.593 0 01.573.745zM5.527 12.831h.006A2.065 2.065 0 017.602 14.9a2.066 2.066 0 01-1.277 1.917 2.067 2.067 0 01-2.26-.446 2.066 2.066 0 01-.453-2.26 2.068 2.068 0 011.915-1.28zm-.626 2.702a.89.89 0 10.632-1.518h-.004a.887.887 0 00-.628 1.518zm9.017-2.702c.546-.04 1.08.218 1.468.603.392.393.607.912.607 1.466a2.065 2.065 0 01-1.274 1.917 2.064 2.064 0 01-2.262-.446 2.065 2.065 0 01-.452-2.26 2.064 2.064 0 011.913-1.28zm-.625 2.702a.889.889 0 10.631-1.518h-.001c-.331.032-.685.215-.823.548a.885.885 0 00.193.97z"/></svg><svg viewBox="0 0 22 20" id="cart-pop" xmlns="http://www.w3.org/2000/svg"><path fill-rule="evenodd" d="M21.934 5.216l-3.717 8.56a.813.813 0 01-.746.488H7.257a.814.814 0 01-.787-.597L3.147 1.629H.814A.817.817 0 010 .814c0-.449.366-.816.814-.816h2.943c.367 0 .692.245.787.598l3.323 12.038h9.062l3.011-6.929H9.902a.816.816 0 010-1.631h11.286c.271 0 .529.137.678.366a.829.829 0 01.068.776zM6.484 16.303a1.848 1.848 0 010 3.696 1.849 1.849 0 010-3.696zm11.408 0a1.85 1.85 0 011.519 3.057c-.326.38-.773.598-1.262.639h-.135a1.85 1.85 0 01-1.831-1.726 1.849 1.849 0 011.709-1.97z"/></svg><svg viewBox="0 0 7 12" id="direct-right" xmlns="http://www.w3.org/2000/svg"><path fill-rule="evenodd" d="M1.333 11.687a.557.557 0 01-.411-.183.602.602 0 01.022-.831l4.547-4.475L.944 1.724A.602.602 0 01.922.893.552.552 0 011.723.87L6.7 5.768l.014.014a.545.545 0 01.113.169h.001a.611.611 0 01.052.244v.003a.609.609 0 01-.053.249l-.001.001v.002a.594.594 0 01-.111.164l-.015.014-4.977 4.899a.551.551 0 01-.39.16z"/></svg><svg viewBox="0 0 19 17" id="heart" xmlns="http://www.w3.org/2000/svg"><path fill-rule="evenodd" fill="#243F4D" d="M9.913 16.244a.714.714 0 01-.28-.056C9.28 16.039.983 12.439.983 5.429 1.074 2.779 3.19.721 5.801.721c1.743 0 3.266.918 4.112 2.31a4.796 4.796 0 014.112-2.31c2.609 0 4.725 2.058 4.817 4.684 0 7.034-8.297 10.634-8.649 10.783a.718.718 0 01-.28.056zM5.801 2.106c-1.847 0-3.343 1.47-3.408 3.346 0 5.408 6.125 8.663 7.52 9.335 1.395-.672 7.52-3.93 7.52-9.358-.065-1.853-1.563-3.323-3.408-3.323s-3.342 1.47-3.408 3.346a.698.698 0 01-.704.669.7.7 0 01-.705-.669c-.064-1.876-1.561-3.346-3.407-3.346z"/></svg><svg viewBox="0 0 22 18" id="heart-pop" xmlns="http://www.w3.org/2000/svg"><path fill-rule="evenodd" d="M21.99 5.82a6.212 6.212 0 00-1.849-4.1C19.016.61 17.545-.001 16.002-.001c-2.311 0-3.948 1.785-4.827 2.745l-.156.169-.083-.094c-.804-.916-2.476-2.82-4.938-2.82-1.543 0-3.013.611-4.139 1.721A6.212 6.212 0 00.01 5.82c-.082 1.541.31 2.88 1.271 4.338.861 1.308 3.104 3.374 4.763 4.748 1.705 1.411 3.95 3.093 4.965 3.093 1.032 0 3.269-1.68 4.965-3.087 1.646-1.367 3.876-3.432 4.746-4.754.646-.984 1.375-2.366 1.27-4.338zm-2.376 3.61c-.632.961-2.412 2.736-4.431 4.418-2.406 2.004-3.831 2.795-4.172 2.826-.342-.035-1.77-.833-4.188-2.843-2.03-1.686-3.813-3.454-4.437-4.402-.795-1.206-1.12-2.297-1.054-3.538.135-2.519 2.228-4.569 4.666-4.569 1.863 0 3.216 1.542 3.943 2.37.428.488.663.755 1.059.755.409 0 .672-.286 1.151-.809.794-.866 2.122-2.316 3.851-2.316 2.438 0 4.531 2.05 4.666 4.569.067 1.254-.248 2.313-1.054 3.539z"/></svg><svg viewBox="0 0 146 39" id="logo" xmlns="http://www.w3.org/2000/svg"><path fill-rule="evenodd" fill="#A3BBC8" d="M49.728 38.647c-.405.33-.903.213-.908.212L.779 29.061c-.014-.003-.382-.075-.622-.387-.239-.311-.157-.666-.067-.848.088-.18 6.411-12.931 6.582-13.256.171-.325.375-.387.507-.452L42.373.068s.57-.188.965.051a.961.961 0 01.449.645l6.251 37.079s.094.475-.31.804zm-6.251-2.699L22.949 24.537l-17.523 3.65 38.051 7.761zm2.266-.838l-9.711-13.304-10.339 2.159 20.05 11.145zM2.736 26.924l17.833-3.714-12.522-6.983-5.311 10.697zm6.973-11.869l13.601 7.584 12.372-2.583L41.24 2.468 9.709 15.055zm32.778-9.922l-4.903 15.52 9.779 13.397-4.876-28.917z"/><text font-family="Myriad Pro" font-size="36" x="63" y="31.641"><tspan font-family="Rubik" fill="#436372">Glee.</tspan></text></svg><svg viewBox="0 0 16 16" id="search" xmlns="http://www.w3.org/2000/svg"><path fill-rule="evenodd" fill="#243F4D" d="M15.321 14.61c-.422.454-1.994 1.415-3.731-.292l-2.058-2.35a6.283 6.283 0 01-2.549.539C3.515 12.507.705 9.705.705 6.25c0-3.456 2.807-6.254 6.275-6.254 3.465 0 6.279 2.801 6.279 6.257 0 .929-.203 1.812-.568 2.604l2.336 2.036c1.703 1.747.746 3.266.294 3.717zM6.98 1.305c-2.742 0-4.965 2.216-4.965 4.948s2.22 4.948 4.965 4.948c2.742 0 4.966-2.216 4.966-4.948S9.722 1.305 6.98 1.305zm7.199 10.561l-2.162-1.88a6.254 6.254 0 01-1.363 1.34l1.872 2.187c.293.324 1.126.867 1.881.226.209-.176.633-1.068-.228-1.873zm-7.685-1.781a4.205 4.205 0 01-2.143-1.131 4.172 4.172 0 01-1.136-2.136c-.065-.354.128-.676.487-.742.356-.065.68.131.746.484.096.582.355 1.067.779 1.489.421.389.942.678 1.494.777.325.066.552.39.487.743a.644.644 0 01-.714.516z"/></svg><svg viewBox="0 0 20 20" id="search-pop" xmlns="http://www.w3.org/2000/svg"><path fill-rule="evenodd" d="M19.45 19.448a1.873 1.873 0 01-2.651 0l-4.588-4.588a8.819 8.819 0 002.651-2.651l4.588 4.589c.733.732.733 1.92 0 2.65zM7.5 14.999A7.5 7.5 0 117.502-.003 7.5 7.5 0 017.5 15zm0-13.126a5.632 5.632 0 00-5.625 5.626A5.63 5.63 0 007.5 13.123a5.63 5.63 0 005.625-5.624A5.632 5.632 0 007.5 1.873zM4.375 7.499h-1.25A4.381 4.381 0 017.5 3.123v1.251a3.129 3.129 0 00-3.125 3.125z"/></svg><svg viewBox="0 0 10 10" id="user" xmlns="http://www.w3.org/2000/svg"><path d="M5 0a2.64 2.64 0 00-2.637 2.637A2.64 2.64 0 005 5.273a2.64 2.64 0 002.637-2.636A2.64 2.64 0 005 0zm0 0M8.281 6.996A3.756 3.756 0 005.586 5.86H4.414A3.756 3.756 0 001.72 6.996 3.84 3.84 0 00.605 9.707c0 .16.133.293.293.293h8.204c.16 0 .293-.133.293-.293a3.84 3.84 0 00-1.114-2.71zm0 0"/></svg><svg viewBox="0 0 22 25" id="video-btn" xmlns="http://www.w3.org/2000/svg"><path d="M20.684 14.74L4.64 24.536a3.236 3.236 0 01-3.062.144c-.972-.47-1.579-1.387-1.579-2.385V2.7c0-.999.607-1.917 1.579-2.386A3.24 3.24 0 014.64.457l16.044 9.798c.822.502 1.315 1.343 1.315 2.241 0 .9-.493 1.741-1.315 2.244z"/></svg></svg>